<?xml version="1.0" standalone="no"?>
<!DOCTYPE svg PUBLIC "-//W3C//DTD SVG 20010904//EN"
 "http://www.w3.org/TR/2001/REC-SVG-20010904/DTD/svg10.dtd">
<svg version="1.0" xmlns="http://www.w3.org/2000/svg"
 width="1080.000000pt" height="1080.000000pt" viewBox="0 0 1080.000000 1080.000000"
 preserveAspectRatio="xMidYMid meet">

<g transform="translate(0.000000,1080.000000) scale(0.100000,-0.100000)"
fill="#000000" stroke="none">
<path d="M0 5400 l0 -5400 5400 0 5400 0 0 5400 0 5400 -5400 0 -5400 0 0
-5400z m2590 2080 l0 -370 35 0 35 0 0 264 0 264 114 106 114 106 697 -2 697
-3 -268 -250 c-148 -137 -419 -391 -604 -564 -184 -173 -398 -373 -475 -445
-77 -72 -176 -165 -220 -206 -44 -42 -115 -108 -158 -148 l-77 -72 -698 0
-697 1 65 62 c36 34 205 192 375 351 171 159 375 351 455 427 80 76 157 147
173 159 l27 21 0 335 0 334 205 0 205 0 0 -370z m2233 163 c387 -363 851 -798
1221 -1143 l358 -335 -697 -3 -697 -2 -157 147 c-86 82 -220 206 -296 278 -77
71 -174 161 -215 200 -41 39 -160 151 -265 250 -104 98 -205 193 -223 210
l-34 32 307 286 306 287 85 0 85 0 222 -207z m-1475 -2556 c30 -88 76 -139
150 -168 50 -19 79 -21 242 -23 l185 -1 0 250 0 250 -137 3 -138 3 0 314 0
315 428 0 429 0 81 -71 82 -71 0 -849 0 -849 -732 0 c-829 0 -830 1 -993 79
-222 108 -372 288 -455 548 -57 178 -63 237 -67 713 l-5 436 449 419 448 419
5 -824 5 -825 23 -68z m534 1611 c2 -13 2 -76 0 -140 l-3 -118 -110 0 -109 0
0 43 c0 97 48 173 134 213 64 30 84 30 88 2z m131 8 c91 -33 145 -105 154
-208 l6 -58 -117 0 -116 0 0 140 c0 157 -2 152 73 126z m-133 -436 l0 -110
-110 0 -110 0 0 110 0 110 110 0 110 0 0 -110z m290 0 l0 -110 -115 0 -115 0
0 110 0 110 115 0 115 0 0 -110z m3608 -421 c120 -19 262 -71 320 -117 l24
-18 -78 -156 -77 -155 -56 27 c-126 62 -253 81 -388 57 -144 -26 -251 -91
-322 -195 -132 -196 -116 -417 43 -590 97 -103 220 -152 391 -152 104 0 184
18 269 60 33 17 61 30 63 30 5 0 153 -298 153 -309 0 -14 -147 -87 -220 -109
-100 -30 -237 -46 -357 -39 -383 19 -722 291 -813 651 -27 108 -27 265 0 372
77 301 314 537 634 629 114 33 261 38 414 14z m-2254 -34 c120 -34 221 -100
274 -178 95 -138 107 -359 30 -524 -32 -70 -133 -167 -212 -204 l-66 -31 44
-51 c159 -190 506 -609 506 -612 0 -3 -106 -5 -235 -5 l-234 0 -243 316 -243
317 -3 -317 -2 -316 -185 0 -185 0 0 816 0 816 348 -5 c288 -4 357 -7 406 -22z
m1024 -792 l2 -813 -190 0 -190 0 0 808 c0 445 3 812 7 816 4 3 88 5 187 4
l181 -3 3 -812z m2082 492 l0 -325 260 0 260 0 2 323 3 322 185 0 185 0 3
-812 2 -813 -190 0 -190 0 0 325 0 325 -260 0 -260 0 0 -325 0 -325 -185 0
-185 0 0 815 0 815 185 0 185 0 0 -325z m-3505 -1420 c95 -16 195 -99 243
-203 23 -49 27 -70 27 -152 0 -88 -3 -101 -33 -162 -40 -82 -111 -149 -190
-178 -81 -31 -215 -25 -287 12 -106 55 -180 168 -192 291 -18 194 109 365 296
397 46 8 60 7 136 -5z m740 -16 c81 -31 82 -31 60 -81 -11 -24 -25 -53 -33
-65 l-13 -21 -47 21 c-62 27 -139 28 -159 1 -7 -10 -13 -30 -11 -44 3 -21 22
-35 113 -82 122 -64 168 -106 185 -169 23 -86 -25 -190 -107 -230 -42 -21 -62
-24 -158 -24 -105 0 -114 2 -178 33 -38 19 -71 40 -73 46 -4 12 62 136 72 136
3 0 21 -10 42 -23 91 -56 162 -63 209 -23 24 21 26 27 18 52 -8 21 -34 40
-114 84 -121 65 -161 105 -168 174 -3 24 -2 61 1 81 8 40 64 108 109 131 66
35 164 36 252 3z m3531 20 c66 -12 154 -47 154 -61 0 -4 -14 -36 -30 -68 l-30
-60 -29 14 c-59 31 -115 39 -155 22 -34 -14 -37 -19 -34 -48 3 -31 10 -36 103
-84 166 -83 216 -150 196 -258 -12 -66 -51 -119 -108 -147 -42 -21 -62 -24
-158 -24 -98 1 -116 3 -165 27 -100 47 -99 45 -56 122 21 37 41 66 44 64 4 -2
35 -18 69 -36 97 -50 183 -42 198 19 9 36 -10 53 -119 111 -116 62 -156 104
-163 172 -8 69 4 113 44 157 42 47 78 67 136 79 23 4 42 8 43 9 0 1 27 -4 60
-10z m-1242 -20 c77 -28 148 -96 188 -177 30 -61 33 -74 33 -162 0 -82 -4
-103 -27 -152 -34 -72 -98 -142 -163 -176 -45 -25 -60 -27 -160 -27 -100 0
-115 2 -160 27 -68 36 -128 101 -162 173 -24 52 -28 72 -28 155 0 88 3 101 33
162 39 79 112 149 187 178 70 27 187 27 259 -1z m-4249 0 c55 -15 120 -82 135
-139 25 -92 -9 -196 -80 -245 -50 -34 -91 -45 -177 -45 l-73 0 0 -130 0 -130
-80 0 -80 0 0 350 0 350 158 0 c86 0 175 -5 197 -11z m570 -8 c96 -43 137
-132 114 -242 -9 -42 -21 -63 -53 -94 -23 -22 -49 -45 -60 -50 -17 -10 -8 -23
85 -135 57 -69 110 -133 118 -143 13 -16 7 -17 -90 -17 l-104 1 -100 131 -100
131 -3 -132 -3 -131 -84 0 -85 0 0 350 0 350 163 0 c135 0 169 -3 202 -19z
m1916 8 c89 -27 141 -102 141 -203 -1 -75 -11 -104 -57 -155 -45 -50 -106 -71
-202 -71 l-73 0 0 -130 0 -130 -80 0 -80 0 0 350 0 350 156 0 c89 0 173 -5
195 -11z m619 -59 l0 -69 -122 -3 -123 -3 0 -65 0 -65 118 -3 117 -3 0 -69 0
-70 -118 0 -118 0 -3 -50 c-4 -92 -6 -90 130 -90 l119 0 0 -70 0 -70 -205 0
-205 0 0 350 0 350 205 0 205 0 0 -70z m445 51 c96 -43 137 -132 114 -242 -9
-42 -21 -63 -53 -94 -23 -22 -49 -45 -59 -50 -17 -9 -7 -25 92 -144 61 -73
114 -137 117 -142 3 -5 -39 -9 -98 -9 l-103 1 -100 131 -100 132 -3 -132 -3
-132 -84 0 -85 0 0 350 0 350 163 0 c135 0 169 -3 202 -19z m1145 -211 c0
-297 8 -320 114 -320 33 0 52 6 73 24 l28 24 3 251 3 251 85 0 86 0 -4 -267
c-4 -285 -7 -301 -58 -366 -44 -55 -93 -72 -215 -72 -99 0 -116 3 -160 26 -35
18 -59 39 -80 74 l-30 48 -3 279 -3 278 80 0 81 0 0 -230z m-4527 -672 c37
-36 21 -54 -17 -19 -73 68 -171 -35 -100 -106 20 -20 31 -24 57 -19 18 3 39
15 49 26 17 21 38 27 38 10 0 -5 -11 -21 -25 -35 -19 -18 -36 -25 -66 -25 -51
0 -75 13 -94 50 -19 37 -19 54 1 95 30 63 106 74 157 23z m287 5 c57 -51 37
-153 -33 -171 -93 -25 -169 65 -123 147 31 56 107 67 156 24z m214 -50 l56
-77 0 78 c0 58 3 77 13 74 8 -3 13 -35 15 -101 2 -88 1 -97 -15 -97 -11 0 -33
24 -56 59 -61 95 -67 96 -67 12 0 -41 -4 -71 -10 -71 -6 0 -10 40 -10 100 0
55 4 100 9 100 5 0 35 -35 65 -77z m304 61 c22 -15 30 -44 13 -44 -5 0 -14 7
-21 16 -19 22 -75 15 -75 -10 0 -13 12 -23 39 -33 72 -24 93 -58 59 -95 -31
-34 -133 -14 -133 28 0 21 23 17 38 -7 16 -25 60 -23 76 4 12 20 -1 33 -44 43
-43 11 -70 33 -70 59 0 28 34 55 70 55 14 0 36 -7 48 -16z m272 1 c0 -10 -11
-15 -35 -15 l-35 0 0 -85 c0 -50 -4 -85 -10 -85 -6 0 -10 35 -10 85 l0 85 -35
0 c-24 0 -35 5 -35 15 0 12 16 15 80 15 64 0 80 -3 80 -15z m214 -6 c32 -25
34 -61 5 -90 l-20 -20 21 -35 c18 -29 19 -34 6 -34 -9 0 -26 16 -38 35 -15 23
-31 35 -45 35 -20 0 -23 -5 -23 -36 0 -24 -4 -34 -12 -32 -13 5 -23 156 -13
186 7 21 89 15 119 -9z m156 -51 c0 -76 15 -108 51 -108 32 0 49 39 49 113 0
51 3 68 13 64 8 -2 12 -28 12 -80 0 -90 -20 -121 -76 -119 -55 1 -73 30 -77
122 -4 68 -2 80 12 80 13 0 16 -13 16 -72z m389 46 c31 -26 40 -44 21 -44 -6
0 -20 9 -32 20 -32 29 -82 26 -107 -6 -24 -30 -26 -43 -10 -77 11 -25 47 -47
75 -47 8 0 26 11 40 25 14 14 29 25 34 25 17 0 11 -20 -15 -45 -18 -19 -35
-25 -68 -25 -52 0 -84 21 -95 65 -28 100 79 175 157 109z m279 9 c2 -9 -8 -13
-32 -13 l-36 0 0 -85 c0 -69 -3 -85 -15 -85 -12 0 -15 16 -15 85 l0 85 -30 0
c-20 0 -30 5 -30 15 0 13 13 15 77 13 50 -2 78 -7 81 -15z m122 -83 c0 -82 -3
-100 -15 -100 -12 0 -15 17 -15 93 0 52 3 97 7 100 18 19 23 -1 23 -93z m268
75 c34 -29 44 -63 30 -111 -11 -43 -42 -64 -94 -64 -53 0 -91 29 -100 76 -18
97 89 162 164 99z m217 -53 l50 -71 3 75 c2 53 6 74 15 71 8 -2 13 -36 15
-100 3 -115 -9 -125 -61 -50 -17 25 -42 58 -54 72 l-22 26 -1 -72 c0 -42 -4
-73 -10 -73 -6 0 -10 40 -10 101 0 76 3 100 13 97 6 -3 35 -37 62 -76z m474
52 c31 -26 40 -44 21 -44 -6 0 -21 9 -33 20 -31 29 -84 23 -110 -12 -32 -44
-7 -103 50 -114 26 -5 37 -1 58 20 14 14 30 26 35 26 34 0 -27 -69 -62 -71
-67 -4 -104 17 -116 64 -27 102 79 177 157 111z m275 15 c25 -12 56 -63 56
-94 0 -26 -28 -73 -51 -86 -28 -14 -81 -14 -109 1 -29 15 -53 74 -45 111 14
61 89 95 149 68z m216 -44 c19 -30 38 -55 41 -55 3 0 23 25 43 55 20 30 41 55
46 55 6 0 10 -41 10 -100 0 -84 -2 -100 -16 -100 -13 0 -15 11 -13 60 1 33 0
62 -3 65 -3 3 -17 -13 -32 -35 -14 -22 -31 -40 -36 -40 -5 0 -22 19 -37 42
l-28 42 -3 -67 c-2 -51 -6 -67 -17 -67 -12 0 -15 19 -15 100 0 119 9 125 60
45z m355 45 c29 -11 46 -47 38 -79 -6 -25 -51 -51 -88 -51 -21 0 -25 -5 -25
-30 0 -19 -5 -30 -14 -30 -11 0 -14 20 -14 93 0 50 2 95 5 100 6 10 67 9 98
-3z m252 -73 c18 -45 35 -90 39 -99 4 -12 1 -18 -9 -18 -8 0 -17 9 -20 20 -4
17 -14 20 -55 20 -42 0 -52 -3 -57 -20 -3 -11 -13 -20 -21 -20 -18 0 -19 -7
19 85 19 44 36 88 40 98 13 35 33 15 64 -66z m215 6 l53 -77 3 77 c4 113 22
95 22 -23 0 -74 -3 -100 -12 -100 -7 0 -35 33 -63 73 l-50 72 -3 -73 c-2 -52
-6 -72 -15 -69 -8 2 -12 33 -13 93 -2 132 4 134 78 27z m226 32 c15 -25 29
-45 32 -45 3 0 17 20 32 45 25 41 48 58 48 36 0 -6 -16 -36 -35 -68 -21 -35
-35 -71 -35 -90 0 -18 -4 -33 -10 -33 -5 0 -10 15 -10 33 0 19 -14 55 -35 90
-19 32 -35 62 -35 68 0 22 23 5 48 -36z"/>
<path d="M5140 5330 l0 -210 83 0 c160 0 234 44 257 154 6 30 8 72 4 93 -8 49
-42 109 -71 128 -33 22 -139 45 -210 45 l-63 0 0 -210z"/>
<path d="M4975 3931 c-73 -33 -105 -93 -105 -193 1 -107 46 -175 131 -198 122
-33 218 54 219 198 0 161 -116 252 -245 193z"/>
<path d="M7975 3943 c-36 -9 -87 -55 -106 -97 -27 -60 -25 -159 4 -216 65
-130 248 -128 308 4 23 51 25 153 3 204 -36 87 -117 127 -209 105z"/>
<path d="M3710 3870 l0 -90 43 0 c61 0 109 27 119 68 17 67 -28 112 -114 112
l-48 0 0 -90z"/>
<path d="M4280 3871 l0 -91 29 0 c41 0 90 19 101 40 6 10 10 36 10 58 0 51
-25 74 -90 80 l-50 5 0 -92z"/>
<path d="M6200 3870 l0 -90 39 0 c46 0 81 12 104 35 19 18 22 76 7 105 -12 22
-61 40 -111 40 l-39 0 0 -90z"/>
<path d="M7260 3870 l0 -93 45 5 c25 3 56 13 70 22 21 14 25 24 25 65 0 61
-22 82 -90 89 l-50 5 0 -93z"/>
<path d="M4239 3169 c-14 -14 -19 -30 -17 -56 6 -74 100 -97 133 -33 20 38 19
52 -6 84 -26 33 -79 36 -110 5z"/>
<path d="M5270 3156 c0 -37 16 -47 60 -36 16 4 26 14 28 29 4 29 -12 41 -55
41 -31 0 -33 -2 -33 -34z"/>
<path d="M6460 3170 c-15 -15 -20 -31 -18 -57 8 -89 122 -94 144 -6 16 62 -79
110 -126 63z"/>
<path d="M7440 3168 c-20 -22 -25 -52 -14 -83 7 -18 55 -45 79 -45 26 0 65 46
65 78 0 64 -85 98 -130 50z"/>
<path d="M8040 3150 l0 -41 36 3 c43 4 65 29 48 56 -6 10 -26 18 -48 20 l-36
3 0 -41z"/>
<path d="M8305 3136 c-9 -21 -14 -40 -12 -43 3 -2 18 -3 35 -1 l29 3 -17 40
-18 40 -17 -39z"/>
</g>
</svg>
